<svg width="141" height="44" viewBox="0 0 141 44" fill="#1790FF" xmlns="http://www.w3.org/2000/svg">
<path d="M61.33 29.06C61.33 30.32 61.02 31.42 60.4 32.36C59.78 33.3 58.88 34.03 57.7 34.55C56.54 35.05 55.12 35.3 53.44 35.3C52.7 35.3 51.97 35.25 51.25 35.15C50.55 35.05 49.87 34.91 49.21 34.73C48.57 34.53 47.96 34.29 47.38 34.01V29.78C48.4 30.22 49.45 30.63 50.53 31.01C51.63 31.37 52.72 31.55 53.8 31.55C54.54 31.55 55.13 31.45 55.57 31.25C56.03 31.05 56.36 30.78 56.56 30.44C56.78 30.1 56.89 29.71 56.89 29.27C56.89 28.73 56.7 28.27 56.32 27.89C55.96 27.51 55.47 27.16 54.85 26.84C54.23 26.5 53.52 26.14 52.72 25.76C52.22 25.52 51.68 25.24 51.1 24.92C50.52 24.58 49.96 24.17 49.42 23.69C48.9 23.19 48.47 22.59 48.13 21.89C47.79 21.19 47.62 20.35 47.62 19.37C47.62 18.09 47.91 17 48.49 16.1C49.09 15.18 49.93 14.48 51.01 14C52.11 13.52 53.4 13.28 54.88 13.28C56 13.28 57.06 13.41 58.06 13.67C59.08 13.93 60.14 14.3 61.24 14.78L59.77 18.32C58.79 17.92 57.91 17.61 57.13 17.39C56.35 17.17 55.55 17.06 54.73 17.06C54.17 17.06 53.69 17.15 53.29 17.33C52.89 17.51 52.58 17.76 52.36 18.08C52.16 18.4 52.06 18.78 52.06 19.22C52.06 19.72 52.21 20.15 52.51 20.51C52.81 20.85 53.26 21.18 53.86 21.5C54.46 21.82 55.21 22.2 56.11 22.64C57.21 23.16 58.14 23.7 58.9 24.26C59.68 24.82 60.28 25.48 60.7 26.24C61.12 27 61.33 27.94 61.33 29.06ZM73.4734 35H68.9434V17.36H63.1234V13.58H79.2934V17.36H73.4734V35ZM100.356 24.08C100.356 26.48 99.8965 28.49 98.9765 30.11C98.0565 31.73 96.7165 32.95 94.9565 33.77C93.2165 34.59 91.1165 35 88.6565 35H82.5965V13.58H89.3165C91.5565 13.58 93.4965 13.98 95.1365 14.78C96.7965 15.58 98.0765 16.76 98.9765 18.32C99.8965 19.86 100.356 21.78 100.356 24.08ZM95.6465 24.2C95.6465 22.62 95.4165 21.32 94.9565 20.3C94.4965 19.28 93.8065 18.53 92.8865 18.05C91.9865 17.55 90.8765 17.3 89.5565 17.3H87.1265V31.25H89.0765C91.2965 31.25 92.9465 30.66 94.0265 29.48C95.1065 28.3 95.6465 26.54 95.6465 24.2Z" />
<path d="M109.336 33.512C109.656 33.512 109.984 33.488 110.32 33.44C110.656 33.376 110.928 33.312 111.136 33.248V34.856C110.912 34.968 110.592 35.056 110.176 35.12C109.76 35.2 109.36 35.24 108.976 35.24C108.304 35.24 107.68 35.128 107.104 34.904C106.544 34.664 106.088 34.256 105.736 33.68C105.384 33.104 105.208 32.296 105.208 31.256V23.768H103.384V22.76L105.232 21.92L106.072 19.184H107.32V22.136H111.04V23.768H107.32V31.208C107.32 31.992 107.504 32.576 107.872 32.96C108.256 33.328 108.744 33.512 109.336 33.512ZM124.896 28.544C124.896 29.616 124.752 30.568 124.464 31.4C124.192 32.216 123.792 32.912 123.264 33.488C122.752 34.064 122.12 34.504 121.368 34.808C120.632 35.096 119.808 35.24 118.896 35.24C118.048 35.24 117.264 35.096 116.544 34.808C115.824 34.504 115.2 34.064 114.672 33.488C114.144 32.912 113.728 32.216 113.424 31.4C113.136 30.568 112.992 29.616 112.992 28.544C112.992 27.12 113.232 25.92 113.712 24.944C114.192 23.952 114.88 23.2 115.776 22.688C116.672 22.16 117.736 21.896 118.968 21.896C120.136 21.896 121.16 22.16 122.04 22.688C122.936 23.2 123.632 23.952 124.128 24.944C124.64 25.92 124.896 27.12 124.896 28.544ZM115.176 28.544C115.176 29.552 115.304 30.432 115.56 31.184C115.832 31.92 116.248 32.488 116.808 32.888C117.368 33.288 118.08 33.488 118.944 33.488C119.808 33.488 120.52 33.288 121.08 32.888C121.64 32.488 122.048 31.92 122.304 31.184C122.576 30.432 122.712 29.552 122.712 28.544C122.712 27.52 122.576 26.648 122.304 25.928C122.032 25.208 121.616 24.656 121.056 24.272C120.512 23.872 119.8 23.672 118.92 23.672C117.608 23.672 116.656 24.104 116.064 24.968C115.472 25.832 115.176 27.024 115.176 28.544ZM134.363 21.896C135.947 21.896 137.219 22.448 138.179 23.552C139.155 24.656 139.643 26.32 139.643 28.544C139.643 30 139.419 31.232 138.971 32.24C138.539 33.232 137.923 33.984 137.123 34.496C136.339 34.992 135.411 35.24 134.339 35.24C133.683 35.24 133.099 35.152 132.587 34.976C132.075 34.8 131.635 34.576 131.267 34.304C130.915 34.016 130.611 33.704 130.355 33.368H130.211C130.243 33.64 130.275 33.984 130.307 34.4C130.339 34.816 130.355 35.176 130.355 35.48V40.76H128.243V22.136H129.971L130.259 23.888H130.355C130.611 23.52 130.915 23.184 131.267 22.88C131.635 22.576 132.067 22.336 132.563 22.16C133.075 21.984 133.675 21.896 134.363 21.896ZM133.979 23.672C133.115 23.672 132.419 23.84 131.891 24.176C131.363 24.496 130.979 24.984 130.739 25.64C130.499 26.296 130.371 27.128 130.355 28.136V28.544C130.355 29.6 130.467 30.496 130.691 31.232C130.915 31.968 131.291 32.528 131.819 32.912C132.363 33.296 133.099 33.488 134.027 33.488C134.811 33.488 135.451 33.272 135.947 32.84C136.459 32.408 136.835 31.824 137.075 31.088C137.331 30.336 137.459 29.48 137.459 28.52C137.459 27.048 137.171 25.872 136.595 24.992C136.035 24.112 135.163 23.672 133.979 23.672Z"/>
<path fill-rule="evenodd" clip-rule="evenodd" d="M37 9H19V17H8V24H0V35H8H11V25H22V13H37V9Z" />
<rect x="22" y="25" width="15" height="10" />
<path d="M29.5 0L30.5103 2.76393H33.7798L31.1347 4.47214L32.145 7.23607L29.5 5.52786L26.855 7.23607L27.8653 4.47214L25.2202 2.76393H28.4897L29.5 0Z" />
<rect x="9" y="31" width="15" height="4" />
</svg>
