<svg width="24" height="23" viewBox="0 0 24 23" fill="#787D85" xmlns="http://www.w3.org/2000/svg">
<path d="M2.90489 4C2.90421 4 2.90344 4 2.90276 4C2.66294 4 2.43738 4.07613 2.26705 4.21448C2.09485 4.35436 2 4.54062 2 4.7389V15.8185C2 16.2248 2.4075 16.5562 2.90848 16.5572C5.02049 16.5613 8.55895 16.9198 11 19V7.40485C11 7.26712 10.9568 7.13774 10.8753 7.03067C8.87177 4.40324 5.02169 4.00403 2.90489 4Z" />
<path d="M22 15.8186V4.7389C22 4.54062 21.9051 4.35436 21.7329 4.21448C21.5626 4.07613 21.3369 4 21.0973 4C21.0966 4 21.0958 4 21.0951 4C18.9784 4.0041 15.1283 4.40331 13.1246 7.03074C13.0431 7.13781 13 7.26719 13 7.40492V19C15.4411 16.9198 18.9796 16.5613 21.0916 16.5572C21.5925 16.5562 22 16.2248 22 15.8186Z" />
<path d="M23.1534 6H22.5395V15.81C22.5395 16.9085 21.5709 17.8043 20.3803 17.8071C18.7086 17.8107 15.9522 18.1128 14 19.8203C17.3763 19.0563 20.9355 19.5529 22.9639 19.9801C23.2172 20.0334 23.4789 19.9784 23.6818 19.8289C23.884 19.6798 24 19.4569 24 19.2177V6.78235C24.0001 6.35097 23.6202 6 23.1534 6Z" />
<path d="M1.46053 15.8101V6H0.846585C0.379872 6 0 6.35098 0 6.78236V19.2177C0 19.457 0.116001 19.6798 0.318206 19.8288C0.520969 19.9782 0.78245 20.0335 1.03612 19.9801C3.06455 19.5528 6.62386 19.0563 10 19.8202C8.0479 18.1128 5.29144 17.8108 3.6197 17.8071C2.42917 17.8045 1.46053 16.9087 1.46053 15.8101Z" />
</svg>
