<svg width="24" height="23" viewBox="0 0 24 23" fill="none" fill="#787D85" xmlns="http://www.w3.org/2000/svg">
<g clip-path="url(#clip0_1_285)">
<path d="M17 2L5 7L0 4.5L11.5443 0.0731561C11.7809 -0.0243854 12.0647 -0.0243854 12.3131 0.0731561L17 2Z" />
<path d="M24 5.00001L11.8004 10L9.5 9.00001L6 7.50001L17.5 2.30688L20.5 3.5L24 5.00001Z" />
<path d="M11 11.154L10.9881 22L0.486778 16.8C0.189962 16.6516 0 16.354 0 16.0339V6L4.45026 8.08039V11.738C4.45026 12.2064 4.85393 12.5951 5.34071 12.5951C5.82749 12.5951 6.23116 12.2064 6.23116 11.738V8.92625L6.82479 9.20038L11 11.154Z" />
<path d="M23.987 6L12.013 11.1387L12 22L24 16.5539L23.987 6Z" />
</g>
<defs>
<clipPath id="clip0_1_285">
<rect width="24" height="22.4982" fill="white"/>
</clipPath>
</defs>
</svg>
