<svg width="24" height="24" viewBox="0 0 24 24" fill="#787D85" xmlns="http://www.w3.org/2000/svg">
<path d="M21.0362 10.2778C21.1056 9.91025 21.1406 9.5354 21.1406 9.1579C21.1406 5.76225 18.302 3 14.8125 3C12.585 3 10.5203 4.15463 9.38597 5.98941C7.85475 5.50635 6.28369 5.71349 4.98938 6.58143C3.69506 7.44869 2.92256 8.82181 2.86008 10.3232C1.15856 11.1096 0 12.7841 0 14.6316C0 14.9523 0.0798281 15.265 0.140906 15.5684L0.141609 15.569C0.596203 17.8014 2.62659 19.4211 4.96875 19.4211H19.0312C21.7449 19.4211 24 17.2722 24 14.6316C24 12.764 22.8256 11.0829 21.0362 10.2778Z" />
</svg>
